<?xml version="1.0" ?><svg enable-background="new 0 0 64 64" version="1.1" viewBox="0 0 64 64" xml:space="preserve" xmlns="http://www.w3.org/2000/svg" xmlns:xlink="http://www.w3.org/1999/xlink"><g id="row_4"/><g id="row_3"/><g id="row_2"><g id="sale"><g><path d="M24,5c0,0-4-4,3-4c6.9,0,8.1,2.7,5.5,4" fill="none" stroke="#4E342E" stroke-miterlimit="10"/><g><path d="M49.5,17.1L37.9,5.5C36.9,4.5,35.7,4,34.3,4H21.7c-1.3,0-2.6,0.5-3.5,1.5L6.5,17.1      C5.5,18.1,5,19.3,5,20.7V43c0,0.8,0.3,1.5,0.8,2h44.4c0.5-0.5,0.8-1.2,0.8-2V20.7C51,19.3,50.5,18.1,49.5,17.1z M28,17      c-2.2,0-4-1.8-4-4c0-2.2,1.8-4,4-4s4,1.8,4,4C32,15.2,30.2,17,28,17z" fill="#FFE0B2"/><path d="M5.8,45C5.3,45.5,5,46.2,5,47v12c0,1.7,1.3,3,3,3h40c1.7,0,3-1.3,3-3V47c0-0.8-0.3-1.5-0.8-2H5.8z" fill="#9E9D24"/></g><path d="M28,18c-2.8,0-5-2.2-5-5s2.2-5,5-5s5,2.2,5,5S30.8,18,28,18z M28,10c-1.7,0-3,1.3-3,3s1.3,3,3,3     s3-1.3,3-3S29.7,10,28,10z" fill="#F9A825"/><path d="M27.2,10.1c0.1,0.9,0,2-1.2,1.9     c-1.8-0.2-1.6-11.5,5-11.5S55,4.1,58,31s-4.5,24-4.8,18s0.6-35.1-0.3-38.6C52.2,6.8,40.8-3.5,31,3.1c-7.1,4.9-4.3,9.9-2.3,9.4     c0.6-0.1,1-0.7,1.2-1.8" fill="none" stroke="#4E342E" stroke-linecap="round" stroke-miterlimit="10"/><g><g><line fill="none" stroke="#AFB42B" stroke-miterlimit="10" x1="6" x2="8" y1="47.5" y2="45.5"/><line fill="none" stroke="#AFB42B" stroke-miterlimit="10" x1="6" x2="11" y1="50.5" y2="45.5"/><line fill="none" stroke="#AFB42B" stroke-miterlimit="10" x1="6" x2="14" y1="53.5" y2="45.5"/><line fill="none" stroke="#AFB42B" stroke-miterlimit="10" x1="6" x2="17" y1="56.5" y2="45.5"/><line fill="none" stroke="#AFB42B" stroke-miterlimit="10" x1="6" x2="20" y1="59.5" y2="45.5"/><line fill="none" stroke="#AFB42B" stroke-miterlimit="10" x1="7.2" x2="23" y1="61.3" y2="45.5"/><line fill="none" stroke="#AFB42B" stroke-miterlimit="10" x1="26" x2="10" y1="45.5" y2="61.5"/><line fill="none" stroke="#AFB42B" stroke-miterlimit="10" x1="29" x2="13" y1="45.5" y2="61.5"/><line fill="none" stroke="#AFB42B" stroke-miterlimit="10" x1="32" x2="16" y1="45.5" y2="61.5"/><line fill="none" stroke="#AFB42B" stroke-miterlimit="10" x1="35" x2="19" y1="45.5" y2="61.5"/><line fill="none" stroke="#AFB42B" stroke-miterlimit="10" x1="38" x2="22" y1="45.5" y2="61.5"/><line fill="none" stroke="#AFB42B" stroke-miterlimit="10" x1="41" x2="25" y1="45.5" y2="61.5"/><line fill="none" stroke="#AFB42B" stroke-miterlimit="10" x1="44" x2="28" y1="45.5" y2="61.5"/><line fill="none" stroke="#AFB42B" stroke-miterlimit="10" x1="47" x2="31" y1="45.5" y2="61.5"/><line fill="none" stroke="#AFB42B" stroke-miterlimit="10" x1="49.4" x2="34" y1="46.1" y2="61.5"/><line fill="none" stroke="#AFB42B" stroke-miterlimit="10" x1="50" x2="37" y1="48.5" y2="61.5"/><line fill="none" stroke="#AFB42B" stroke-miterlimit="10" x1="50" x2="40" y1="51.5" y2="61.5"/><line fill="none" stroke="#AFB42B" stroke-miterlimit="10" x1="50" x2="43" y1="54.5" y2="61.5"/><line fill="none" stroke="#AFB42B" stroke-miterlimit="10" x1="50" x2="46" y1="57.5" y2="61.5"/></g></g></g><g><g><g><path d="M20.4,23c2,0,3,1.1,3,3.3c0,2.2-1,3.3-3,3.3c-2,0-3-1.1-3-3.3C17.4,24.1,18.4,23,20.4,23 M20.4,21       c-2.9,0-5,1.8-5,5.3c0,3.5,2.1,5.3,5,5.3c2.9,0,5-1.8,5-5.3C25.4,22.8,23.3,21,20.4,21L20.4,21z" fill="#5E4B36"/></g></g><g><g><path d="M35.6,32.8c2,0,3,1.1,3,3.3c0,2.2-1,3.3-3,3.3c-2,0-3-1.1-3-3.3C32.6,33.9,33.6,32.8,35.6,32.8        M35.6,30.8c-2.9,0-5,1.8-5,5.3c0,3.5,2.1,5.3,5,5.3c2.9,0,5-1.8,5-5.3C40.6,32.6,38.5,30.8,35.6,30.8L35.6,30.8z" fill="#5E4B36"/></g></g><line fill="none" stroke="#5E4B36" stroke-miterlimit="10" stroke-width="2" x1="22.8" x2="33.3" y1="41.1" y2="21"/></g></g></g><g id="row_1"/></svg>