<?xml version="1.0" ?><!DOCTYPE svg  PUBLIC '-//W3C//DTD SVG 1.1//EN'  'http://www.w3.org/Graphics/SVG/1.1/DTD/svg11.dtd'><svg enable-background="new 0 0 128 128" id="Layer_1" version="1.1" viewBox="0 0 128 128" xml:space="preserve" xmlns="http://www.w3.org/2000/svg" xmlns:xlink="http://www.w3.org/1999/xlink"><g><g><g><path d="M64,114.956c-28.121,0-51-22.838-51-50.909c0-16.565,8.118-32.148,21.715-41.684     C43.32,16.328,53.447,13.138,64,13.138l0.115,0.002C92.204,13.24,115,36.077,115,64.048s-22.796,50.807-50.814,50.905L64,114.956     z M64.061,15.139c-10.204,0-19.932,3.064-28.197,8.861C22.8,33.162,15,48.133,15,64.047c0,26.969,21.981,48.909,49,48.909v1     l0.079-1.001l0.103-0.002C91.099,112.858,113,90.92,113,64.048S91.099,15.236,64.178,15.141l-0.111-0.002     C64.064,15.139,64.062,15.139,64.061,15.139z" fill="#313638"/></g></g><g><g><path d="M64.069,114.5c-27.871,0-50.546-22.654-50.546-50.5c0-6.852,1.358-13.501,4.036-19.764l0.96-2.244v4.971     l2.078,0.999v4.134l1.806,3.076l0.904,0.14l0.087-0.49l-1.881-2.992l-0.446-3.431h2.116l0.525,3.26l2.879,4.192l-0.72,1.309     l1.484,2.271l3.557,0.879v-0.643l2.806,0.398L33.55,61.33l0.903,0.166l2.307,0.629l2.958,3.369l4.031,0.304l0.458,3.822     l-2.661,1.858l-0.113,2.538l-0.334,1.554l3.713,4.651l0.259,1.433c0.508,0.134,1.021,0.262,1.133,0.274     c0.176,0.007,0.303-0.002,3.349,2.305l0.198,0.15v8.427l1.111,0.312l-0.75,4.178l1.73,2.306l-0.326,3.949l2.191,3.845l2.764,2.41     l2.417,0.046l0.085-0.28l-2.147-1.807l0.165-1.188l0.394-1.152l0.041-0.557l-1.188-0.034l-1.178-1.477l1.443-1.387l0.054-0.289     l-1.337-0.383l0.159-1.632l2.268-0.343l2.763-1.325l0.919-1.688l3.021-3.87l-0.668-3.122l0.066-0.131l1.104-1.914l2.988,0.089     l1.623-1.284l0.617-5.949l2.159-2.743l0.257-1.19l-1.698-0.543l-1.244-2.038l-4.302-0.071l-3.795-1.444l-0.18-2.696l-0.968-1.689     l-3.142-0.044l-1.901-2.974l-0.847-0.412l-0.056,0.581l-3.653,0.217l-1.127-1.567l-2.602-0.528l-2.526,2.922l-4.662-0.79     l-0.289-4.495l-3.207-0.547l1.4-2.644l-0.106-0.401l-3.398,2.271l-2.869-0.349L30.27,56.66l0.616-2.223l1.404-2.581l3.302-1.671     l6.526-0.003l-0.02,1.98l1.075,0.5L43.039,50.2l1.766-1.761l2.899-1.902l0.198-1.36l3.308-3.405l2.631-1.454l-0.16-0.132     l2.831-2.663l0.016,0.005v-1.373l0.819-0.668l1.469,0.042l0.669,0.291l0.258,0.521l0.536,0.119l1.098-0.169l0.261-0.907     l1.721,0.437v0.155l1.295-0.44l0.051-1.111l-1.884-1.147l-0.104-2.449l-2.036,1h-1.634l0.264-2.36l-2.908-0.686l-1.088,0.821     v3.515l-2.794,0.885l-1.082,2.254l-1.99,0.32v-2.984l-2.267-0.36l-1.407-0.916l-0.652-2.39l4.897-2.85l2.739-0.831l0.237,1.587     l0.346-0.018l0.089-0.701l0.71-0.102l-0.219-1.354l1.62-0.136l-2.376-0.362l-0.438-1.903l1.158-1.05l-2.035-0.1l-0.635,0.191     l-0.12,0.322l1.161,0.195l-0.429,2.129l-2.188,0.129l-0.34,0.84l-3.889,0.107l-0.023-0.489c-0.022-0.438-0.061-0.949-0.1-1.269     h-0.108l-0.009-0.496c-0.002-0.278-0.003-0.4,0.505-0.463v-0.041c0.068,0,0.13,0.007,0.185,0.022     c0.366-0.03,0.926-0.043,1.78-0.058l-2.523-0.142l-1.32-1.816h-2.407l-1.612,1.202h1.567l0.45,1.44l-0.052,0.049l2.104,0.059     l0.888,2.099l-4.55-0.168l-0.179-0.897l-1.935-0.438l-1.009-0.559l-3.951,0.032l1.26-0.917     c8.693-6.327,18.963-9.671,29.697-9.671l0.114,0.002c12.234,0.026,24.045,4.506,33.256,12.614l0.304,0.267l-0.88,1.569     l-2.366,0.928l-0.727,0.788l0.114,0.628l1.117,0.156l0.643,1.598l2.181-0.879l0.511,3.601h-1.196l-1.682-0.243l-1.588,0.267     l-1.812,2.557l-2.441,0.382l-0.235,1.396l1.115,0.263l-0.523,2.384l-2.951-0.592L85.03,41.62l-0.355,0.937l0.35,2.354l1.04,0.485     l2.205-0.014l1.215-0.112l0.438-1.081l2.642-3.43l1.668,0.343l2.007-1.812l0.461,1.731l3.74,2.521l-0.002-0.197l0.213-0.106     l-2.613-1.457l-0.987-2.772h3.083l0.836,0.829l2.007,1.725l0.08,1.974l1.182,1.258l0.549-2.148l2.186-1.192l0.314,2.886     l1.046,1.146l2.731-0.046l0.126,0.324c0.512,1.315,0.972,2.662,1.368,4.004l0.089,0.301l-0.655,0.596h-4.349l-2.414-1.792     l-1.912,0.186v1.606h-1.472l-0.928-0.661l-4.717-1.195v-2.716l-4.972,0.387l-1.761,0.944h-2.355l-0.987-0.097l-2.313,1.284v2.787     l-5.46,3.936l0.269,0.999h1.338l-0.45,2.493l-0.735,0.27l-0.033,3.702l4.506,5.128l1.511-0.008l0.122-0.324h3.894l1.079-0.997     h2.524l1.185,1.186l3.48,0.361l-0.45,4.537l3.568,6.289l-1.91,3.647l0.1,1.335l1.476,1.467v4.039l1.908,2.57v2.989h2.203     l-0.665,0.815c-9.64,11.829-23.886,18.632-39.087,18.665L64.069,114.5z M17.52,47.047C15.53,52.469,14.523,58.159,14.523,64     c0,27.294,22.227,49.5,49.546,49.5v0.5l0.044-0.501c14.613-0.033,28.271-6.39,37.703-17.481h-1.084v-3.659l-1.908-2.57v-3.953     l-1.444-1.436l-0.15-1.993l1.791-3.417l-3.457-6.092l0.384-3.861l-2.844-0.297l-1.142-1.143h-1.72l-1.079,0.997l-3.596,0.008     l-0.122,0.324h-2.652l-5.057-5.755l0.043-4.776l0.847-0.311l0.136-0.751h-0.906l-0.647-2.406l5.604-4.04v-2.863l2.976-1.652     l-1.674-0.782l-0.467-3.144l0.641-1.687l2.724-0.596l2.195,0.439l0.102-0.462l-1.07-0.253l0.513-3.031l2.734-0.427l1.808-2.553     l2.153-0.36l1.737,0.256l-0.17-1.197l-1.925,0.775l-0.799-1.988l-1.262-0.176l-0.331-1.831l1.219-1.323l2.249-0.881l0.309-0.551     c-8.984-7.779-20.437-12.073-32.293-12.099L64.068,14v0.5c-9.99,0-19.569,2.955-27.807,8.562l1.055-0.009l0.004,0.002     l3.736-2.786h3.249l1.34,1.844l1.752,0.099l1.426-1.384l1.578,0.787l0.048-0.13l1.277-0.387l4.619,0.229l-0.724,0.655     l1.515-0.755l3.382-0.389l5.118,2.267v1.721l1.741,0.433l-1.19,2.244h-2.078l-0.66,1.707l-6.565-1.549l4.33-2.304l-0.724-0.614     l-2.894,0.365l-0.429,0.446l-0.001-0.001l-0.875,0.908l-1.156,0.097l0.562,0.233l-0.085,1.019l-1.287,0.185l-0.097,0.773     l-2.09,0.109l-0.2-1.341l-1.574,0.478l-4.078,2.387l0.352,1.282l0.993,0.647l2.815,0.389v2.682l0.314-0.051l1.043-2.172     l2.509-0.795v-3.28l1.861-1.403l4.227,0.996l-0.238,2.13h0.284l3.202-1.574l0.146,3.447l1.933,1.177l-0.109,2.385l-1.612,0.549     l2.14,0.974l-0.071,1.98l-1.573,0.135l-0.019-0.193l-2.771-0.853l-0.102-0.774h-1.172l1.182-0.814l-1.188,0.184l0.256,0.035     l-1.71,0.758l-1.167,1.29l-0.635-0.797l-0.384-0.102l-1.601,1.505l0.416,0.345L51.76,42.61l-2.914,3.029l-0.218,1.487     l-3.231,2.12l-1.334,1.342l0.201,3.684l-3.171-1.475l0.016-1.615l-5.278,0.003l-2.81,1.423l-1.229,2.256l-0.462,1.708     l0.668,1.461l1.945,0.237l4.256-2.844l0.563,2.134l-0.936,1.767l2.623,0.447l0.289,4.495l3.326,0.563l2.542-2.938l3.557,0.722     l1.035,1.438l2.249-0.133l0.11-1.163l2.397,1.166l1.763,2.757l3.173,0.044l1.366,2.385l0.152,2.286l3.112,1.185l4.594,0.044     l1.34,2.192l2.206,0.707l-0.495,2.304l-2.124,2.696l-0.631,6.082l-2.24,1.771l-2.754-0.081l-0.716,1.242l0.726,3.149     l-3.268,4.175l-1.029,1.902l-3.262,1.541l-1.574,0.265l1.409,0.404l-0.278,1.498l-1.018,0.979l0.32,0.4l1.769,0.05l-0.147,1.793     l-0.393,1.121l-0.068,0.541l2.232,1.879l-0.497,1.634l-3.536-0.067l-3.208-2.833l-2.386-4.188l0.32-3.879l-1.764-2.351     l0.666-3.713l-0.967-0.271v-8.688c-1.159-0.875-2.406-1.787-2.712-1.967c-0.173-0.027-0.565-0.113-1.534-0.377l-0.305-0.083     l-0.327-1.807l-3.852-4.824l0.425-1.937l0.124-2.945l2.573-1.798l-0.288-2.41l-3.619-0.272l-3.028-3.451l-1.977-0.539     l-1.796-0.328l0.161-1.227l-0.687-0.098v0.768l-5.178-1.279l-2.029-3.103l0.712-1.295l-2.195-3.198l1.23,1.897l-0.329,1.84     l-2.338-0.36l-2.185-3.721v-3.776l-2.078-0.999V47.047z M22.491,51.588l0.258,0.398l-0.417-2.588h-0.126L22.491,51.588z      M107.974,49.665h3.51c-0.327-1.076-0.696-2.154-1.1-3.213l-2.484,0.042l-1.571-1.721l-0.188-1.726l-0.492,0.269l-0.891,3.49     l-2.686-2.855l-0.012-0.3l-0.614,0.308l0.022,1.552l-1.726,0.722l-1.431-0.314l-1.381-1.961l2.523,0.136l0.004-0.006     l-3.629-2.446l-0.136-0.511l-1.167,1.055l-1.553-0.319l-2.215,2.877l-0.416,1.077l0.703-0.328l6.154-0.479v3.019l4.221,1.104     l0.744,0.53h0.151V48.15l3.199-0.311L107.974,49.665z M86.813,46.392l0.35,0.035l2.054-0.003l0.281-0.15l-1.181,0.107     L86.813,46.392z M100.453,44.425l-0.458,0.618l0.464-0.194L100.453,44.425z M98.854,41.093l2.562,1.454l0.626,0.663l-0.048-1.172     l-1.702-1.465l-0.569-0.563h-1.254L98.854,41.093z M62.621,38.085l2.467,0.76l0.021-0.002l0.015-0.427l-2.054-0.935l-0.484,0.333     L62.621,38.085z M57.527,36.935l0.593,0.197l0.962,0.126l-0.332-0.667l-0.239-0.104h-0.809l-0.175,0.143V36.935z M59.696,27.298     l3.134,0.738l0.594-1.533h2.162l0.31-0.582l-1.259-0.313v-1.852l-4.274-1.892l-3.02,0.347l-1.463,0.765l0.127,2.341l0.641-0.665     l0.26-0.345l0.051,0.023l0.162-0.169l3.681-0.465l2.185,1.851L59.696,27.298z M41.011,24.979l2.19,0.082l-0.024-0.06     l-2.174-0.062L41.011,24.979z M46.301,24.251c0.022,0.205,0.041,0.451,0.059,0.742l2.258-0.062l0.332-0.818l2.05-0.121     l0.073-0.361l-1.335-0.225l0.348-0.937l-1.792,1.747l-0.198,0.004C48.095,24.22,47.014,24.238,46.301,24.251z M53.987,24.272     l0.97,0.148l-0.095-1.75l-1.03,0.933L53.987,24.272z M38.491,23.703l1.681,0.362l0.481-0.452l-0.044-0.142h-2.537L38.491,23.703z      M49.011,22.039l-1.22,1.186c0.029,0,0.058-0.001,0.088-0.001l1.187-1.157L49.011,22.039z" fill="#313638"/></g></g></g></svg>