<?xml version="1.0" ?><!DOCTYPE svg  PUBLIC '-//W3C//DTD SVG 1.1//EN'  'http://www.w3.org/Graphics/SVG/1.1/DTD/svg11.dtd'><svg enable-background="new 0 0 128 128" id="Слой_1" version="1.1" viewBox="0 0 128 128" xml:space="preserve" xmlns="http://www.w3.org/2000/svg" xmlns:xlink="http://www.w3.org/1999/xlink"><g><path d="M89.796,108.609H38.204c-2.322,0-4.204-1.882-4.204-4.204v-80.81c0-2.322,1.882-4.204,4.204-4.204h51.592   c2.322,0,4.204,1.882,4.204,4.204v80.809C94.001,106.727,92.118,108.609,89.796,108.609z" fill="#333638"/><rect fill="#F6CA41" height="72.001" width="53.218" x="37.391" y="27.999"/><circle cx="64" cy="104.175" fill="#4B4F51" r="2.609"/><circle cx="64" cy="23.304" fill="#4B4F51" r="1.043"/><path d="M51.391,46.009h-8c-0.552,0-1-0.448-1-1v-8.01c0-0.552,0.448-1,1-1h8c0.552,0,1,0.448,1,1   v8.01C52.391,45.561,51.943,46.009,51.391,46.009z" fill="#FFFFFF" opacity="0.9"/><g><path d="M47.749,45.067c-0.38,0-0.739-0.173-0.977-0.47l-3.643-4.559l1.953-1.561l2.663,3.332l4.561-5.749    l1.959,1.554l-5.536,6.979c-0.237,0.299-0.597,0.473-0.977,0.474C47.75,45.067,47.75,45.067,47.749,45.067z" fill="#47AB98"/></g><rect fill="#FFFFFF" height="2.5" opacity="0.9" width="28" x="57.45" y="36.749"/><rect fill="#FFFFFF" height="2.5" opacity="0.9" width="14" x="57.45" y="41.749"/><path d="M51.391,61.009h-8c-0.552,0-1-0.448-1-1v-8.01c0-0.552,0.448-1,1-1h8c0.552,0,1,0.448,1,1   v8.01C52.391,60.561,51.943,61.009,51.391,61.009z" fill="#FFFFFF" opacity="0.9"/><g><path d="M47.749,60.067c-0.38,0-0.739-0.173-0.977-0.47l-3.643-4.559l1.953-1.561l2.663,3.332l4.561-5.749    l1.959,1.554l-5.536,6.979c-0.237,0.299-0.597,0.473-0.977,0.474C47.75,60.067,47.75,60.067,47.749,60.067z" fill="#47AB98"/></g><rect fill="#FFFFFF" height="2.5" opacity="0.9" width="28" x="57.45" y="51.749"/><rect fill="#FFFFFF" height="2.5" opacity="0.9" width="14" x="57.45" y="56.749"/><path d="M51.391,76.009h-8c-0.552,0-1-0.448-1-1v-8.01c0-0.552,0.448-1,1-1h8c0.552,0,1,0.448,1,1   v8.01C52.391,75.561,51.943,76.009,51.391,76.009z" fill="#FFFFFF" opacity="0.9"/><g><path d="M47.749,75.067c-0.38,0-0.739-0.173-0.977-0.47l-3.643-4.559l1.953-1.561l2.663,3.332l4.561-5.749    l1.959,1.554l-5.536,6.979c-0.237,0.299-0.597,0.473-0.977,0.474C47.75,75.067,47.75,75.067,47.749,75.067z" fill="#47AB98"/></g><rect fill="#FFFFFF" height="2.5" opacity="0.9" width="28" x="57.45" y="66.749"/><rect fill="#FFFFFF" height="2.5" opacity="0.9" width="14" x="57.45" y="71.749"/><path d="M51.391,91.009h-8c-0.552,0-1-0.448-1-1v-8.01c0-0.552,0.448-1,1-1h8c0.552,0,1,0.448,1,1v8.01   C52.391,90.561,51.943,91.009,51.391,91.009z" fill="#FFFFFF"/><rect fill="#FFFFFF" height="2.5" width="28" x="57.45" y="81.749"/><rect fill="#FFFFFF" height="2.5" width="14" x="57.45" y="86.749"/></g></svg>