<?xml version="1.0" ?><!DOCTYPE svg  PUBLIC '-//W3C//DTD SVG 1.1//EN'  'http://www.w3.org/Graphics/SVG/1.1/DTD/svg11.dtd'><svg enable-background="new 0 0 483 322" height="2048px" style="shape-rendering:geometricPrecision; text-rendering:geometricPrecision; image-rendering:optimizeQuality; fill-rule:evenodd; clip-rule:evenodd" version="1.1" viewBox="0 0 2048 2048" width="2048px" xml:space="preserve" xmlns="http://www.w3.org/2000/svg" xmlns:cc="http://creativecommons.org/ns#" xmlns:dc="http://purl.org/dc/elements/1.1/" xmlns:inkscape="http://www.inkscape.org/namespaces/inkscape" xmlns:rdf="http://www.w3.org/1999/02/22-rdf-syntax-ns#" xmlns:sodipodi="http://sodipodi.sourceforge.net/DTD/sodipodi-0.dtd" xmlns:svg="http://www.w3.org/2000/svg" xmlns:xlink="http://www.w3.org/1999/xlink"><defs><style type="text/css">
   <![CDATA[
    .fil3 {fill:none}
    .fil2 {fill:#29292A}
    .fil1 {fill:#FEFEFE}
    .fil0 {fill:#ED3237}
   ]]>
  </style></defs><g id="Layer_x0020_1"><g id="_305701432"><path class="fil0" d="M318.779 1529.24c-20.5028,-7.8815 -44.2678,-30.404 -54.9461,-52.0748l-7.83308 -15.9 0 -437.269 0 -437.267 7.83308 -15.9012c10.9961,-22.3134 34.402,-44.2028 55.852,-52.2296l17.6469 -6.60119 686.669 0 686.67 0 18.2197 6.81497c21.8953,8.19449 46.0075,30.8918 56.1567,52.8626l6.95434 15.0543 0 437.267 0 437.269 -6.9567 15.0543c-10.1492,21.9673 -34.2626,44.6693 -56.1579,52.8615l-18.2162 6.81851 -687.584 -0.17126c-682.111,-0.159449 -687.717,-0.210236 -704.307,-6.58819z" id="_305701624"/><polygon class="fil1" id="_305701456" points="263.087,770.167 1777.4,770.167 1777.4,1427.53 263.087,1427.53 "/><path class="fil2" d="M1289.09 1222.88c-16.5354,-11.5843 -30.0673,-60.0083 -36.0154,-128.914 -2.89843,-33.5563 -2.34095,-51.0485 1.83898,-57.8162 2.99646,-4.84489 20.0622,-2.65276 35.3374,4.54843 28.2473,13.3028 27.3957,11.1484 30.1488,76.4056 2.79449,66.1111 4.4941,79.5627 9.83387,77.778 7.04056,-2.34331 32.9256,-44.0044 36.8422,-59.2997 2.15197,-8.38938 3.68032,-28.6914 3.4063,-45.1264 -0.274016,-16.4327 -0.504331,-33.1323 -0.507874,-37.1044 -0.00590552,-9.13701 6.1004,-16.6311 13.5461,-16.6311 8.00552,0 45.7087,17.8181 50.8713,24.0366 3.47717,4.18819 3.56457,10.5189 0.49252,34.8331 -4.00866,31.7445 -8.20985,44.55 -17.3433,52.8768 -3.14528,2.86418 -9.02127,11.4532 -13.0524,19.0819 -4.03583,7.62638 -9.2445,13.8685 -11.5843,13.8685 -2.33268,0 -4.83544,2.14725 -5.55119,4.77166 -1.15748,4.24134 -0.927166,4.24134 2.07166,0 1.85551,-2.62441 3.37205,-3.34016 3.37205,-1.58858 0.0011811,7.00394 -31.0984,36.8374 -41.5158,39.8244 -16.7575,4.81063 -54.4607,3.87048 -62.191,-1.54488l0 0zm-298.896 -129.712c1.05709,-3.93189 1.88386,-22.8945 1.83543,-42.1347 -0.0779528,-33.5233 -0.292914,-34.5981 -5.04922,-25.8154 -6.11221,11.2819 -23.4,60.6993 -23.4,66.8871 0.0011811,5.29607 4.7563,7.62402 16.3228,7.96772 6.11221,0.185433 8.89371,-1.67835 10.291,-6.90473l0 0zm6.77835 135.373c-47.1107,-5.99882 -64.0453,-14.824 -83.4839,-43.5213 -14.5831,-21.5327 -15.1677,-23.2937 -17.0091,-51.1111 -1.31221,-19.8579 -0.637796,-32.276 2.17205,-39.9496 2.24055,-6.11811 6.32717,-21.4807 9.08387,-34.1315 9.81024,-45.0178 20.3917,-64.4493 54.3685,-99.8186 15.5504,-16.1858 19.5118,-18.6839 29.5914,-18.6213 6.40394,0.0377953 17.8713,2.90197 25.5,6.36142 7.62402,3.46063 15.5811,6.28937 17.6882,6.28937 2.10354,0 7.14331,3.09331 11.2004,6.8752 7.15276,6.66497 7.31339,7.95473 5.15315,42.0721 -1.22362,19.3559 -3.52677,36.7654 -5.11654,38.6811 -1.59567,1.91693 -3.28229,22.1906 -3.75945,45.0485l-0.863386 41.563 -17.9209 5.0126c-15.8209,4.42796 -20.6563,4.4941 -41.2926,0.557481 -25.8567,-4.92402 -28.1091,-3.93662 -28.1941,12.3803 -0.0661418,12.691 11.2878,35.1792 24.3579,48.2528 9.1382,9.13347 13.0264,10.7858 25.4197,10.7858 20.3681,0 38.9729,-6.21024 44.6729,-14.9055 5.89489,-8.99528 12.0768,-9.2445 25.5508,-1.0252 16.0252,9.76891 14.2146,19.8425 -5.05985,28.1339 -27.0355,11.6256 -45.4583,14.4579 -72.0591,11.0705l0 0zm-182.255 -156.041c1.52362,-18.4099 -0.848032,-51.678 -3.6874,-51.678 -3.05788,-0.0011811 -15.5516,30.0449 -19.1823,46.1304 -2.27717,10.1221 -1.7563,11.8689 4.27087,14.2973 13.8815,5.60197 17.5547,3.86929 18.5988,-8.74961zm-20.6669 161.078c-15.0992,-3.5504 -21.6626,-7.02638 -43.0748,-22.8083 -24.4559,-18.0284 -28.5721,-29.1815 -29.0492,-78.6426 -0.478347,-50.6032 1.77638,-72.6272 10.1693,-99.3284 7.82245,-24.8705 26.5949,-48.0992 53.7591,-66.5162 16.402,-11.1177 17.8654,-11.5016 34.6181,-9.07324 29.889,4.33937 44.6776,10.2756 49.7115,19.9524 9.89765,19.0276 13.3288,127.715 4.48465,142.024 -3.15355,5.10355 -55.5733,5.29607 -73.1221,0.262205 -5.82874,-1.6689 -11.8276,-2.27953 -13.3264,-1.35709 -1.49764,0.927166 -2.69646,11.9799 -2.65866,24.5551 0.0826772,27.0827 6.82205,44.4307 22.3122,57.463 9.40158,7.90985 12.1654,8.64804 25.1032,6.71812 7.99134,-1.19291 18.2067,-4.33347 22.7008,-6.98032 11.0433,-6.50315 40.3973,-0.73819 50.3894,9.89765l6.93544 7.37953 -16.8449 6.39686c-30.913,11.7461 -76.069,16.1894 -102.108,10.0571l0 0zm-129.239 -8.43308c-2.07638,-8.30434 -7.23898,-22.9772 -11.478,-32.5961 -8.28308,-18.7925 -18.9614,-54.2835 -30.1465,-100.175 -3.83504,-15.7406 -8.10946,-30.7099 -9.49253,-33.2622 -3.57402,-6.59174 -5.7,14.263 -7.60512,74.6056 -0.885827,27.9851 -3.50788,57.3213 -5.82638,65.1934l-4.2189 14.3102 -31.4114 2.9067 -31.4103 2.90197 -7.0441 -8.83465c-3.87638,-4.8567 -16.0217,-23.7213 -26.9929,-41.9103 -10.9713,-18.189 -20.3398,-32.6788 -20.824,-32.1957 -0.48189,0.479528 0.97441,14.3291 3.23504,30.7642 2.25709,16.4386 3.46299,32.3634 2.67047,35.3847 -2.17441,8.31142 -32.1567,20.0941 -49.8485,19.5957 -14.6917,-0.422835 -17.8181,-6.50906 -22.4929,-43.8756 -7.9819,-63.7229 -8.69056,-78.502 -6.40749,-133.319l2.27008 -54.4949 13.989 -3.7441c22.5284,-6.02363 47.5914,-4.8626 54.4701,2.52047 3.20551,3.4441 18.5811,30.991 34.1634,61.2166l28.3347 54.9579 4.01339 -30.2114c5.9126,-44.5264 23.5276,-104.133 38.7071,-130.971l5.96221 -10.5461 28.0795 0.687402c23.1024,0.56693 29.1898,1.79764 34.3406,6.94489 7.97717,7.97953 23.0457,65.0292 45.2103,171.162 2.63622,12.6378 6.89056,28.9158 9.45827,36.1796 2.56418,7.26024 4.65827,15.8386 4.65827,19.0654 0,3.22323 3.57756,16.8236 7.95119,30.215 8.03741,24.6272 9.67324,32.6882 5.85709,28.8756 -1.15158,-1.15158 -4.01457,-0.498426 -6.37087,1.45158 -3.3874,2.81575 -36.8516,11.6787 -46.017,12.1866 -1.10787,0.0661418 -3.71221,-6.68032 -5.78504,-14.9882l0.0011811 0zm467.97 -40.8792c-2.0504,-32.4107 -4.42559,-60.0615 -5.28071,-61.4434 -0.857481,-1.38425 -12.6473,-3.52205 -26.204,-4.7563 -27.8717,-2.52284 -32.7733,-5.2063 -32.7733,-17.948 0,-14.2606 10.213,-19.3063 34.1209,-16.8555l19.9429 2.04331 -0.142913 -12.3638c-0.0755906,-6.80315 -1.50709,-23.1 -3.17599,-36.2209 -12.2339,-96.0686 -14.5146,-164.229 -6.22914,-186.023 2.54292,-6.69095 5.08701,-7.96418 15.9307,-7.96418 12.4843,0 41.7874,12.124 46.0748,19.063 1.57914,2.55709 4.24134,97.6383 5.21339,186.054 0.0590552,5.24882 -0.890552,14.1933 -2.11417,19.8768 -1.97008,9.18426 -1.44095,10.3358 4.7315,10.3358 5.70945,0 6.76536,-1.55788 5.92323,-8.74607 -0.86693,-7.43741 0.255118,-8.89489 7.52835,-9.73347 6.85158,-0.788977 12.8374,3.13583 30.0957,19.7256 11.85,11.3917 20.4957,21.7618 19.2142,23.0433 -4.83426,4.8378 -26.5973,10.5969 -40.3677,10.6819 -30.4488,0.198425 -28.5508,-4.30866 -26.7555,63.5528 1.78819,67.702 3.63662,63.0556 -25.9099,65.3481l-16.0984 1.24961 -3.72402 -58.9205zm401.379 -45.9532c13.161,-12.5032 27.3851,-29.6457 32.1284,-38.7166 9.89174,-18.9106 14.8465,-47.9752 12.15,-71.2796 -2.97756,-25.7433 -5.69646,-27.2091 -20.1201,-10.8319 -22.0772,25.0807 -33.6024,52.1552 -46.0831,108.28 -2.91378,13.1221 -6.01536,26.3563 -6.88229,29.4189 -2.94095,10.3571 5.10355,5.64567 28.8059,-16.8709l0.0011811 0zm-70.8579 216.424c-5.95512,-4.42441 -16.7717,-63.9922 -21.3543,-117.628 -2.0563,-24.0898 -3.27992,-27.9036 -11.3669,-35.4638 -13.0784,-12.2185 -10.7929,-28.1717 4.04055,-28.1717 5.72481,0 8.59489,-8.2689 10.6476,-30.6945 3.67205,-40.0654 17.341,-92.9894 31.0453,-120.184 15.6886,-31.1327 55.9843,-65.3729 76.9359,-65.3729 6.8693,0 25.3205,6.00237 47.9469,15.5941 3.49843,1.48228 10.3772,4.31103 15.2882,6.28583 6.18544,2.4874 11.2536,8.71418 16.5012,20.2736 13.8378,30.4772 13.389,68.4012 -1.25906,107.398 -12.9484,34.4693 -80.3705,96.3426 -114.512,105.091l-16.1953 4.14803 0.0933072 30.4099c0.124016,37.7197 4.62756,73.6028 11.491,91.5839 2.87717,7.5319 4.18819,14.7354 2.91733,16.0099 -2.58307,2.57717 -48.8552,3.21733 -52.2213,0.722835l0.0011811 -0.0011811z" id="_305701600"/></g></g><rect class="fil3" height="2048" width="2048"/></svg>