<?xml version="1.0" encoding="utf-8"?>
<!-- Generator: Adobe Illustrator 17.0.0, SVG Export Plug-In . SVG Version: 6.00 Build 0)  -->
<!DOCTYPE svg PUBLIC "-//W3C//DTD SVG 1.1//EN" "http://www.w3.org/Graphics/SVG/1.1/DTD/svg11.dtd">
<svg version="1.1" id="Layer_1" xmlns="http://www.w3.org/2000/svg" xmlns:xlink="http://www.w3.org/1999/xlink" x="0px" y="0px"
	 width="1472.607px" height="198.698px" viewBox="0 0 1472.607 198.698" enable-background="new 0 0 1472.607 198.698"
	 xml:space="preserve">
<path fill="#FFFFFF" d="M998.001,140.246H955.21l-7.589,17.073h-7.8l33.096-73.776h7.378l33.096,73.776h-7.8L998.001,140.246z
	 M958.16,133.501h36.891l-18.445-41.946L958.16,133.501z"/>
<g>
	<defs>
		<rect id="SVGID_1_" x="9.257" y="9.163" width="1454.516" height="181.803"/>
	</defs>
	<clipPath id="SVGID_2_">
		<use xlink:href="#SVGID_1_"  overflow="visible"/>
	</clipPath>
	<path clip-path="url(#SVGID_2_)" fill="#FFFFFF" d="M1109.941,83.539c12.962,0,24.662,5.695,24.662,20.24
		c0,7.167-4.428,13.278-11.595,15.701c9.067,2.639,13.812,10.434,13.812,17.918c0,15.284-13.601,19.923-26.879,19.923h-31.413
		V83.539H1109.941z M1085.906,116.219h24.562c8.85,0,16.756-3.589,16.756-12.545c0-9.906-8.223-13.278-17.284-13.278h-24.035
		V116.219z M1085.906,150.365h24.035c8.434,0,19.501-2.633,19.501-13.073c-0.111-10.223-10.123-14.334-18.973-14.334h-24.562
		V150.365z"/>
	<path clip-path="url(#SVGID_2_)" fill="#FFFFFF" d="M1236.843,83.539c12.967,0,24.668,5.695,24.668,20.24
		c0,7.167-4.434,13.278-11.595,15.701c9.061,2.639,13.806,10.434,13.806,17.918c0,15.284-13.595,19.923-26.879,19.923h-31.407
		V83.539H1236.843z M1212.814,116.219h24.557c8.85,0,16.756-3.589,16.756-12.545c0-9.906-8.223-13.278-17.284-13.278h-24.029
		V116.219z M1212.814,150.365h24.029c8.434,0,19.501-2.633,19.501-13.073c-0.106-10.223-10.123-14.334-18.973-14.334h-24.557
		V150.365z"/>
</g>
<rect x="1332.339" y="83.542" fill="#FFFFFF" width="7.378" height="73.776"/>
<polygon fill="#FFFFFF" points="1404.33,83.543 1404.33,90.493 1430.364,90.493 1430.364,157.319 1437.736,157.319 1437.736,90.493 
	1463.777,90.493 1463.777,83.543 "/>
<g>
	<defs>
		<rect id="SVGID_3_" x="9.257" y="9.163" width="1454.516" height="181.803"/>
	</defs>
	<clipPath id="SVGID_4_">
		<use xlink:href="#SVGID_3_"  overflow="visible"/>
	</clipPath>
	<path clip-path="url(#SVGID_4_)" fill="#FFFFFF" d="M827.884,90.496h25.718c11.384,0,17.073,7.167,17.073,16.44
		c0,9.278-5.689,16.234-17.495,16.234h-25.296V90.496z M827.855,136.325v-6.909h30.029c14.117-1.531,20.275-11.513,20.17-22.48
		c-0.106-12.434-8.012-23.395-24.451-23.395h-33.096v73.782h7.378v-20.997H827.855z"/>
</g>
<polygon fill="#FFFFFF" points="861.926,136.325 852.531,136.325 871.416,157.322 881.005,157.322 "/>
<polygon fill="#FFFFFF" points="189.492,154.58 136.584,154.58 136.584,80.804 188.548,80.804 188.548,87.754 143.962,87.754 
	143.962,114.211 186.542,114.211 186.542,121.061 143.962,121.061 143.962,147.624 189.492,147.624 "/>
<polygon fill="#FFFFFF" points="275.818,87.756 249.784,87.756 249.784,80.801 309.231,80.801 309.231,87.756 283.197,87.756 
	283.197,154.582 275.818,154.582 "/>
<g>
	<defs>
		<rect id="SVGID_5_" x="9.257" y="9.163" width="1454.516" height="181.803"/>
	</defs>
	<clipPath id="SVGID_6_">
		<use xlink:href="#SVGID_5_"  overflow="visible"/>
	</clipPath>
	<path clip-path="url(#SVGID_6_)" fill="#FFFFFF" d="M571.149,117.904c-0.1,19.284-12.328,38.046-37.307,38.046
		c-25.085,0-37.419-18.762-37.419-38.158c0-20.756,13.495-38.257,37.419-38.257C558.821,79.64,571.261,98.191,571.149,117.904
		 M533.842,148.994c20.134,0,29.829-15.284,29.935-31.09c0-16.551-9.8-31.307-29.935-31.407c-19.818,0-30.252,14.011-30.04,31.407
		C504.013,134.026,513.713,148.994,533.842,148.994"/>
	<path clip-path="url(#SVGID_6_)" fill="#FFFFFF" d="M381.221,87.759h25.718c11.384,0,17.073,7.167,17.073,16.44
		c0,9.278-5.689,16.234-17.495,16.234h-25.296V87.759z M381.338,126.679h29.864c14.129-1.531,20.287-11.513,20.187-22.48
		c-0.1-12.434-8.006-23.395-24.451-23.395h-33.096v73.776h7.378v-27.19h0.117V126.679z"/>
</g>
<polygon fill="#FFFFFF" points="415.261,133.586 405.872,133.586 424.751,154.583 434.34,154.583 "/>
<g>
	<defs>
		<rect id="SVGID_7_" x="9.257" y="9.163" width="1454.516" height="181.803"/>
	</defs>
	<clipPath id="SVGID_8_">
		<use xlink:href="#SVGID_7_"  overflow="visible"/>
	</clipPath>
	<path clip-path="url(#SVGID_8_)" fill="#FFFFFF" d="M16.637,87.757h25.718c11.378,0,17.073,7.167,17.073,16.44
		c0,9.278-5.695,16.234-17.501,16.234h-25.29V87.757z M16.601,133.586v-6.909h30.017c14.129-1.531,20.287-11.513,20.187-22.48
		C66.7,91.763,58.794,80.801,42.355,80.801H9.258v73.782h7.378v-20.997H16.601z"/>
</g>
<polygon fill="#FFFFFF" points="50.676,133.586 41.286,133.586 60.165,154.583 69.755,154.583 "/>
<g>
	<defs>
		<rect id="SVGID_9_" x="9.257" y="9.163" width="1454.516" height="181.803"/>
	</defs>
	<clipPath id="SVGID_10_">
		<use xlink:href="#SVGID_9_"  overflow="visible"/>
	</clipPath>
	<path clip-path="url(#SVGID_10_)" fill="#FFFFFF" d="M738.526,87.863c3.46,40.134-4.733,87.552-6.193,92.203
		c-1.237,1.402-4.393,1.953-6.733,1.114c-2.809-1.009-4.663-3.894-4.51-7.015c0.194-3.994-0.803-9.167-6.68-11.12
		c-2.428-0.809-5.454-0.481-7.701,0.833c-1.865,1.079-3.108,2.792-3.507,4.809l-0.135,0.686c-0.733,3.759-1.038,5.314-2.856,8.129
		c-0.833,1.29-2.27,2.375-6.827,3.754c-7.378,2.24-20.651,6.246-33.542,0.704c2.534-3.261,4.059-7.337,4.059-11.777
		c0-10.61-8.627-19.237-19.237-19.237c-0.088,0-0.176,0.012-0.264,0.012c1.296-14.528,7.818-28.574,8.258-29.501
		c1.724-3.666,3.8-6.798,6.34-9.583c3.454-3.783,6.85-5.883,9.114-7.284c1.413-0.886,34.785-21.742,41.166-27.084l1.419-1.173
		c1.056-0.868,1.877-1.513,2.375-1.912c0.088-0.07,2.223-1.771,5.267-4.809c2.768-2.762,5.325-6.721,7.384-9.9
		c0.827-1.284,1.554-2.416,2.141-3.208c0.586-0.786,1.185-1.431,1.812-1.965C732.426,60.907,737.265,73.276,738.526,87.863
		 M655.179,179.433c-1.478-1.05-3.449-2.657-5.138-4.663c-4.258-5.056-5.795-11.707-5.853-18.586
		c0.158-0.006,0.317-0.023,0.475-0.023c7.73,0,14.023,6.293,14.023,14.023C658.686,173.726,657.354,176.958,655.179,179.433
		 M644.663,184.213c-7.736,0-14.023-6.293-14.023-14.029c0-5.331,2.991-9.976,7.384-12.346c0.305,7.595,2.287,15.02,7.273,20.932
		c1.531,1.818,3.15,3.29,4.575,4.428C648.258,183.843,646.504,184.213,644.663,184.213 M766.443,13.119L765.1,9.16l-3.402,2.434
		c-7.941,5.677-16.299,10.733-24.826,15.014l-0.933,0.469c-9.314,4.686-23.378,11.759-44.586,16.879
		c-3.179,0.768-11.214,3.402-17.138,11.237c-4.627,6.111-5.894,12.698-6.146,17.143l-0.059,1.05l0.598,0.88
		c2.223,3.237,4.856,6.17,7.836,8.71c0.182,0.152,0.381,0.282,0.563,0.434l5.472-3.566c-0.686-0.51-1.355-1.044-2.006-1.595
		c-2.293-1.953-4.346-4.176-6.123-6.616c0.334-3.525,1.478-8.287,4.815-12.692c4.721-6.24,11.114-8.334,13.642-8.95
		c21.906-5.284,36.357-12.557,45.917-17.366l0.933-0.469c7.478-3.754,14.821-8.082,21.888-12.885
		c0.252,1.924,0.223,3.842-0.082,5.736c-1.226,7.537-6.944,12.275-9.097,14.058c-5.566,4.622-10.399,5.46-15.073,6.276
		c-5.009,0.868-10.193,1.771-14.416,7.46c-0.68,0.915-1.46,2.129-2.375,3.537c-1.894,2.932-4.252,6.586-6.551,8.88
		c-2.768,2.762-4.721,4.322-4.88,4.452c-0.37,0.287-1.22,0.962-2.311,1.853c-0.727,0.598-1.284,1.062-1.537,1.273
		c-2.323,1.947-8.885,6.352-16.052,11.02l-6.012,3.883c-9.402,6.041-18.158,11.513-18.328,11.619
		c-2.387,1.478-6.387,3.947-10.422,8.375c-2.962,3.243-5.378,6.88-7.372,11.114c-1.196,2.54-8.006,17.595-8.956,33.325
		c-7.372,2.698-12.662,9.759-12.662,18.052c0,10.61,8.633,19.243,19.243,19.243c3.754,0,7.249-1.097,10.211-2.968
		c6.475,3.349,13.073,4.504,19.155,4.504c8.745,0,16.422-2.328,21.155-3.759c4.592-1.396,8.094-3.003,10.246-6.334
		c2.463-3.812,2.968-6.399,3.736-10.305l0.129-0.674c0.023-0.123,0.076-0.381,0.54-0.651c0.768-0.446,1.971-0.516,2.616-0.305
		c1.05,0.352,2.633,0.88,2.44,4.927c-0.287,5.83,3.255,11.243,8.616,13.161c4.545,1.63,11.044,0.727,14.064-3.595
		c2.07-2.944,10.756-54.181,7.144-96.098c-1.343-15.583-6.481-28.65-9.36-35.307c0.927-0.199,1.924-0.375,3.009-0.563
		c4.956-0.868,11.132-1.941,17.97-7.613c2.645-2.194,9.666-8.012,11.261-17.847C768.273,21.794,767.88,17.342,766.443,13.119"/>
	<path clip-path="url(#SVGID_10_)" fill="#FFFFFF" d="M694.174,62.672c0-1.965-1.589-3.56-3.56-3.56
		c-1.959,0-3.554,1.595-3.554,3.56c0,1.965,1.589,3.56,3.554,3.56C692.585,66.233,694.174,64.637,694.174,62.672"/>
</g>
</svg>
